<?xml version="1.0" encoding="utf-8"?>
<!-- Generator: Adobe Illustrator 27.5.0, SVG Export Plug-In . SVG Version: 6.00 Build 0)  -->
<svg version="1.1" xmlns="http://www.w3.org/2000/svg" xmlns:xlink="http://www.w3.org/1999/xlink" x="0px" y="0px"
	 viewBox="0 0 500 500" style="enable-background:new 0 0 500 500;" xml:space="preserve">
<g id="Background_Complete">
	<g>
		<rect x="416.779" y="398.494" style="fill:#EBEBEB;" width="33.122" height="0.25"/>
		<rect x="322.527" y="401.208" style="fill:#EBEBEB;" width="8.693" height="0.25"/>
		<rect x="396.586" y="389.208" style="fill:#EBEBEB;" width="19.192" height="0.25"/>
		<rect x="52.459" y="390.888" style="fill:#EBEBEB;" width="43.193" height="0.25"/>
		<rect x="104.556" y="390.888" style="fill:#EBEBEB;" width="6.333" height="0.25"/>
		<rect x="131.471" y="395.111" style="fill:#EBEBEB;" width="93.676" height="0.25"/>
		<path style="fill:#EBEBEB;" d="M237.014,337.8H43.915c-3.147,0-5.708-2.561-5.708-5.708V60.66c0-3.147,2.561-5.708,5.708-5.708
			h193.099c3.146,0,5.707,2.561,5.707,5.708v271.432C242.721,335.239,240.16,337.8,237.014,337.8z M43.915,55.203
			c-3.01,0-5.458,2.448-5.458,5.458v271.432c0,3.01,2.448,5.458,5.458,5.458h193.099c3.009,0,5.457-2.448,5.457-5.458V60.66
			c0-3.009-2.448-5.458-5.457-5.458H43.915z"/>
		<path style="fill:#EBEBEB;" d="M453.31,337.8H260.212c-3.147,0-5.707-2.561-5.707-5.708V60.66c0-3.147,2.561-5.708,5.707-5.708
			H453.31c3.148,0,5.708,2.561,5.708,5.708v271.432C459.019,335.239,456.458,337.8,453.31,337.8z M260.212,55.203
			c-3.009,0-5.457,2.448-5.457,5.458v271.432c0,3.01,2.448,5.458,5.457,5.458H453.31c3.01,0,5.458-2.448,5.458-5.458V60.66
			c0-3.009-2.448-5.458-5.458-5.458H260.212z"/>
		<rect y="382.398" style="fill:#EBEBEB;" width="500" height="0.25"/>
	</g>
	<g>
		<path style="fill:#FAFAFA;" d="M377.832,215.162l58.285-0.006c8.061-0.001,13.452-8.273,10.235-15.664
			c-3.87-8.892-12.106-13.708-19.538-7.036c-11.192,10.045-10.668-9.43-24.054-6.697c-11.715,2.392-10.099,13.92-17.275,16.288
			C378.31,204.414,368.422,212.51,377.832,215.162z"/>
		<path style="fill:#FAFAFA;" d="M285.485,110.397l42.54-0.005c5.883-0.001,9.818-6.038,7.47-11.433
			c-2.825-6.49-8.836-10.005-14.26-5.136c-8.169,7.332-7.786-6.883-17.556-4.888c-8.55,1.746-7.371,10.16-12.608,11.888
			C285.834,102.553,278.616,108.462,285.485,110.397z"/>
		<g>
			<g>
				<g>
					<path style="fill:#F0F0F0;" d="M369.675,382.523h-7V158.669c0-12.531,10.195-22.727,22.727-22.727h6.184v7h-6.184
						c-8.672,0-15.727,7.055-15.727,15.727V382.523z"/>
				</g>
				<g>
					<rect x="391.586" y="100" style="fill:#EBEBEB;" width="26.543" height="74.977"/>
					<path style="fill:#E6E6E6;" d="M418.129,174.977h-26.543v0.139c0,2.855,2.315,5.169,5.17,5.169h16.204
						c2.855,0,5.169-2.314,5.169-5.169V174.977z"/>
					<g>
						<circle style="fill:#F0F0F0;" cx="404.857" cy="115.5" r="8.234"/>
						<circle style="fill:#FAFAFA;" cx="404.857" cy="113.5" r="8.234"/>
					</g>
					<g>
						<circle style="fill:#F0F0F0;" cx="404.857" cy="138" r="8.234"/>
						<circle style="fill:#FAFAFA;" cx="404.857" cy="136" r="8.234"/>
					</g>
					<g>
						<circle style="fill:#F0F0F0;" cx="404.857" cy="160.5" r="8.234"/>
						<circle style="fill:#FAFAFA;" cx="404.857" cy="158.5" r="8.234"/>
					</g>
				</g>
			</g>
			<g>
				<g>
					<rect x="390.717" y="317.054" style="fill:#EBEBEB;" width="46.192" height="20.161"/>
					<rect x="387.5" y="314.264" style="fill:#F5F5F5;" width="6.435" height="25.739"/>
					<rect x="433.692" y="314.264" style="fill:#F5F5F5;" width="6.435" height="25.739"/>
					<path style="fill:#F5F5F5;" d="M390.717,330.351h-4.358c-1.147,0-2.077-0.93-2.077-2.077v-2.281
						c0-1.147,0.93-2.077,2.077-2.077h4.358V330.351z"/>
					<path style="fill:#F5F5F5;" d="M436.909,323.917h4.358c1.147,0,2.077,0.93,2.077,2.077v2.281c0,1.147-0.93,2.077-2.077,2.077
						h-4.358V323.917z"/>
					<g>
						<path style="fill:#F5F5F5;" d="M426.223,373.956h-24.82v-69.658c0-6.854,5.556-12.41,12.41-12.41l0,0
							c6.854,0,12.41,5.556,12.41,12.41V373.956z"/>
						<path style="fill:#EBEBEB;" d="M430.704,382.523h-33.782v-6.57c0-3.395,2.752-6.148,6.148-6.148h21.487
							c3.395,0,6.148,2.752,6.148,6.148V382.523z"/>
					</g>
					<circle style="fill:#FAFAFA;" cx="413.813" cy="327.094" r="10.62"/>
					<path style="fill:#EBEBEB;" d="M416.341,327.094c0,1.396-1.132,2.528-2.528,2.528c-1.396,0-2.528-1.132-2.528-2.528
						c0-1.396,1.132-2.528,2.528-2.528C415.209,324.566,416.341,325.698,416.341,327.094z"/>
					<path style="fill:#F0F0F0;" d="M396.922,307.83L396.922,307.83c0-1.777,1.44-3.217,3.217-3.217h27.348
						c1.777,0,3.217,1.44,3.217,3.217l0,0c0,1.777-1.44,3.217-3.217,3.217h-27.348C398.362,311.047,396.922,309.607,396.922,307.83z
						"/>
				</g>
				<g>
					<path style="fill:#EBEBEB;" d="M408.413,343.486L408.413,343.486c1.777,0,3.217,1.44,3.217,3.217v16.626
						c0,1.777-1.44,3.217-3.217,3.217l0,0c-1.777,0-3.217-1.44-3.217-3.217v-16.626
						C405.195,344.927,406.636,343.486,408.413,343.486z"/>
					<path style="fill:#EBEBEB;" d="M419.214,343.486L419.214,343.486c1.777,0,3.217,1.441,3.217,3.217v16.626
						c0,1.777-1.44,3.217-3.217,3.217l0,0c-1.777,0-3.217-1.44-3.217-3.217v-16.626
						C415.996,344.927,417.437,343.486,419.214,343.486z"/>
				</g>
			</g>
			<g>
				<path style="fill:#F0F0F0;" d="M72.048,382.67h-2.462c-0.721,0-1.296-0.601-1.264-1.321l2.653-60.431h6.325l-3.988,60.57
					C73.267,382.153,72.715,382.67,72.048,382.67z"/>
				<path style="fill:#F0F0F0;" d="M82.382,382.67H79.92c-0.721,0-1.296-0.601-1.264-1.321l2.653-60.431h6.325l-3.988,60.57
					C83.601,382.153,83.049,382.67,82.382,382.67z"/>
				<path style="fill:#F0F0F0;" d="M111.079,382.67h2.462c0.721,0,1.296-0.601,1.264-1.321l-2.653-60.431h-6.325l3.988,60.57
					C109.86,382.153,110.412,382.67,111.079,382.67z"/>
				<path style="fill:#F0F0F0;" d="M121.261,382.67h2.462c0.721,0,1.296-0.601,1.264-1.321l-2.653-60.431h-6.325l3.988,60.57
					C120.042,382.153,120.595,382.67,121.261,382.67z"/>
				<rect x="82.54" y="285.37" style="fill:#F0F0F0;" width="5.36" height="28.318"/>
				<rect x="106.238" y="285.37" style="fill:#F0F0F0;" width="5.36" height="28.318"/>
				<path style="fill:#F5F5F5;" d="M129.753,319.727c0,6.263-14.482,5.676-32.346,5.676c-17.864,0-32.346,0.587-32.346-5.676
					s14.482-11.34,32.346-11.34C115.271,308.387,129.753,313.464,129.753,319.727z"/>
				<path style="fill:#F5F5F5;" d="M112.793,288.452H82.021c-4.862,0-8.907-3.74-9.286-8.587l-0.962-12.288
					c-0.424-5.414,3.855-10.042,9.286-10.042h32.696c5.431,0,9.71,4.627,9.286,10.042l-0.962,12.288
					C121.699,284.712,117.655,288.452,112.793,288.452z"/>
			</g>
			<g>
				<rect x="68.531" y="172.123" style="fill:#F0F0F0;" width="36.326" height="28.644"/>
				<rect x="66.575" y="172.123" style="fill:#E0E0E0;" width="1.956" height="28.644"/>
				<rect x="72.234" y="175.043" style="fill:#FAFAFA;" width="28.919" height="22.803"/>
				<rect x="74.615" y="176.92" style="fill:#EBEBEB;" width="24.157" height="19.049"/>
			</g>
			<g>
				<g>
					<rect x="112.351" y="125.643" style="fill:#EBEBEB;" width="39.989" height="50.713"/>
					<rect x="110.442" y="125.643" style="fill:#E0E0E0;" width="1.909" height="50.713"/>
					<rect x="116.428" y="130.814" style="fill:#F5F5F5;" width="31.835" height="40.372"/>
					<rect x="119.049" y="134.137" style="fill:#FAFAFA;" width="26.594" height="33.725"/>
				</g>
				<path style="fill:#EBEBEB;" d="M127.084,146.04c0,0,4.701,6.648,7.115,6.542c2.212-0.097,5.97-6.542,5.97-6.542
					s-4.701-6.648-7.115-6.542C130.842,139.594,127.084,146.04,127.084,146.04z"/>
				<path style="fill:#F0F0F0;" d="M139.383,160.76c1.389-2.682-5.876-8.31-8.893-8.178c-2.765,0.121-8.536,5.627-7.462,8.178
					C124.615,164.528,137.503,164.391,139.383,160.76z"/>
			</g>
			<g>
				<g>
					<ellipse style="fill:#E0E0E0;" cx="79.648" cy="131.837" rx="18.05" ry="25.167"/>
					<ellipse style="fill:#EBEBEB;" cx="81.797" cy="131.837" rx="18.05" ry="25.167"/>
					<ellipse style="fill:#E6E6E6;" cx="81.797" cy="131.837" rx="15.377" ry="21.44"/>
					<ellipse style="fill:#FAFAFA;" cx="81.797" cy="131.837" rx="13.744" ry="19.163"/>
				</g>
				<path style="fill:#EBEBEB;" d="M86.111,142.252c0,0,4.736-4.167,4.236-10.667c0,0-5.667-0.667-5.5,8.833
					c0,0-6.389-6.628-4.5-10.833c2.948-6.56,2.948-6.56,0.867-10.667c0,0-5.575,2.25-3.033,9.833c0,0,0.103,3.667,0.885,5.833
					c0,0-5.61-5.372-7.414-1.853c0,0,2.988,5.686,7.414,3.324C79.065,136.056,84.041,144.771,86.111,142.252z"/>
			</g>
		</g>
	</g>
</g>
<g id="Background_Simple" style="display:none;">
	<g style="display:inline;">
		<path style="fill:#407BFF;" d="M146.837,240.67c25.09-33.08,12.301-110.655,59.256-123.735
			c42.75-11.909,53.857,53.998,83.757,61.658c37.197,9.529,110.407-61.933,152.285-16.193
			c40.567,44.308-103.041,160.081-157.361,182.165c-86.295,35.084-240.955,22.48-235.888-41.831
			C52.288,259.555,125.222,269.168,146.837,240.67z"/>
		<path style="opacity:0.9;fill:#FFFFFF;" d="M146.837,240.67c25.09-33.08,12.301-110.655,59.256-123.735
			c42.75-11.909,53.857,53.998,83.757,61.658c37.197,9.529,110.407-61.933,152.285-16.193
			c40.567,44.308-103.041,160.081-157.361,182.165c-86.295,35.084-240.955,22.48-235.888-41.831
			C52.288,259.555,125.222,269.168,146.837,240.67z"/>
	</g>
</g>
<g id="Shadow">
	<ellipse id="_x3C_Path_x3E__1_" style="fill:#F5F5F5;" cx="245.178" cy="412.391" rx="193.889" ry="11.323"/>
</g>
<g id="Character_2">
	<g>
		<path style="fill:#FFC3BD;" d="M321.779,195.607c-2.685-2.796-4.6-8.029-5.53-11.344l-4.208,10.139
			c1.381,1.634,2.025,3.954,1.556,5.816c-0.023,0.09-0.15,1.789-2.948,3.532c0,0,0.511,10.263,6.619,8.805
			c6.108-1.459,9.432-13.622,9.432-13.622l0.436-3.453C327.137,195.48,324.269,197.818,321.779,195.607z"/>
		<path style="opacity:0.1;" d="M313.072,191.918l-1.032,2.485c0.805,0.952,1.35,2.138,1.579,3.331
			c2.797-3.305,3.114-8.64,3.114-8.64L313.072,191.918z"/>
		<path style="fill:#FFC3BD;" d="M268.711,241.266c0,0,16.486,0.677,23.813-1.331c7.326-2.008,13.54-14.805,13.54-14.805
			l-8.35-4.614l-8.304,12.354l-20.685,3.31l-5.94-4.228c0,0-12.011-2.56-12.011-1.007s6.187,2.827,6.187,2.827
			s0.364,7.381,2.912,7.603C262.422,241.598,268.711,241.266,268.711,241.266z"/>
		<path style="fill:#407BFF;" d="M309.07,205.984c0,0-7.139,0.999-11.808,9.651c-4.669,8.652-0.687,8.992,3.267,11.44
			c3.954,2.449,5.934,2.968,7.751-2.341C310.096,219.425,313.688,205.452,309.07,205.984z"/>
		<path style="opacity:0.1;" d="M309.046,222.312l-2.642-5.398l-4.452-0.34c0,0-0.395,6.202,0.23,11.456
			c2.889,1.512,4.556,1.215,6.099-3.295C308.513,224.053,308.775,223.229,309.046,222.312z"/>
		<g>
			<path style="fill:#263238;" d="M294.831,171.539c0,0-5.199,1.84-1.766,7.136c3.433,5.295-3.492,8.882,8.155,10.345
				c11.647,1.464,0.412-19.606,0.412-19.606L294.831,171.539z"/>
			<path style="opacity:0.3;" d="M294.831,171.539c0,0-5.199,1.84-1.766,7.136c3.433,5.295-3.492,8.882,8.155,10.345
				c11.647,1.464,0.412-19.606,0.412-19.606L294.831,171.539z"/>
		</g>
		<path style="fill:#407BFF;" d="M339.621,204.739c-1.74-11.323-8.335-11.124-14.756-8.593c0.45,4.267,0.463,9.708-5.702,13.094
			c-5.551,3.048-7.716-1.956-7.838-6.225c-5.814,3.312-10.681,7.559-9.087,15.961c0.912,4.809,5.147,10.077,9.489,16.766
			c5.189,7.994,10.529,17.083,10.529,17.083l29.663-15.105C351.921,237.72,341.509,217.015,339.621,204.739z"/>
		<path style="opacity:0.2;" d="M339.621,204.739c-0.257-1.67-0.621-3.083-1.073-4.281l-4.492-0.76l-2.339,3.725
			c0,0,4.95,8.715,11.529,14.227C341.598,213.115,340.204,208.526,339.621,204.739z"/>
		<path style="fill:#FFC3BD;" d="M347.554,201.142c0,0,10.178,6.964,13.285,9.645c4.628,3.993,17.106,17.47,17.106,17.47
			l7.643,4.186v4.834l-3.614,2.499c-1.115,0.771-2.644,0.48-3.398-0.647l-4.635-6.927c0,0-11.442-10.456-15.651-13.436
			c-3.557-2.519-15.105-8.707-15.105-8.707L347.554,201.142z"/>
		<path style="fill:#407BFF;" d="M328.764,195.097c0,0,6.551-2.951,12.147,0s8.055,4.576,7.507,8.138
			c-0.546,3.549-2.593,10.919-6.278,9.691C338.454,211.697,326.716,200.062,328.764,195.097z"/>
		<path style="fill:#FFC3BD;" d="M317.803,175.821c0.757,7.664,1.245,10.891-1.958,15.401c-4.818,6.789-14.392,6.047-17.429-1.235
			c-2.732-6.554-3.514-17.977,3.421-22.197c4.94-3.04,11.408-1.5,14.448,3.44C317.141,172.622,317.661,174.194,317.803,175.821z"/>
		<g>
			<path style="fill:#ED893E;" d="M301.689,181.683c-0.321,1.499-0.847,2.946-1.563,4.302c0.708,0.356,1.538,0.38,2.266,0.066
				L301.689,181.683z"/>
			<path style="fill:#263238;" d="M306.807,176.564c0.046-0.028,0.084-0.066,0.112-0.111c0.084-0.146,0.033-0.333-0.113-0.417
				c-0.002-0.001-0.004-0.002-0.005-0.003c-0.995-0.601-2.221-0.679-3.285-0.209c-0.145,0.081-0.202,0.262-0.128,0.412
				c0.077,0.147,0.256,0.206,0.405,0.133c0.885-0.374,1.894-0.3,2.715,0.198C306.601,176.619,306.714,176.618,306.807,176.564z"/>
			<path style="fill:#263238;" d="M295.358,178.495c0.049-0.021,0.093-0.052,0.128-0.093c0.6-0.743,1.52-1.154,2.474-1.105
				c0.167,0.024,0.321-0.093,0.345-0.259c0-0.001,0-0.003,0.001-0.004c0.017-0.169-0.103-0.32-0.271-0.342
				c-1.16-0.074-2.284,0.416-3.02,1.316c-0.114,0.124-0.106,0.317,0.018,0.431C295.121,178.52,295.248,178.542,295.358,178.495
				L295.358,178.495z"/>
			<g>
				<path style="fill:#263238;" d="M305.886,179.959c0.1,0.614-0.147,1.166-0.555,1.236c-0.408,0.07-0.809-0.379-0.904-1.003
					c-0.095-0.624,0.147-1.166,0.547-1.233C305.374,178.892,305.782,179.337,305.886,179.959z"/>
				<path style="fill:#263238;" d="M298.901,181.087c0.1,0.614-0.147,1.166-0.547,1.233c-0.4,0.067-0.809-0.379-0.912-1
					c-0.103-0.621,0.147-1.166,0.547-1.233C298.389,180.02,298.806,180.463,298.901,181.087z"/>
				<path style="fill:#263238;" d="M298.172,180.092l-1.551-0.186C296.621,179.906,297.572,180.937,298.172,180.092z"/>
				<path style="fill:#263238;" d="M305.156,178.963l-1.551-0.186C303.605,178.778,304.556,179.809,305.156,178.963z"/>
			</g>
			<path style="fill:#263238;" d="M307.377,188.894c0.381-0.189,0.743-0.412,1.084-0.666c0.099-0.072,0.121-0.21,0.049-0.309
				c-0.002-0.002-0.003-0.004-0.005-0.006c-0.071-0.097-0.207-0.119-0.306-0.049c-1.511,1.166-3.484,1.548-5.321,1.031
				c-0.116-0.045-0.245,0.013-0.29,0.128c-0.045,0.116,0.013,0.245,0.128,0.29C304.267,189.782,305.937,189.632,307.377,188.894z"/>
		</g>
		<path style="fill:#263238;" d="M301.259,171.622c-2.976,0.354-11.003,2.639-9.729-4.822c1.274-7.461,15.56-11.192,22.202-6.369
			c6.642,4.822,11.738,4.458,17.016,0.546s7.825-2.366,14.559,1.274c0,0-3.64,6.278-1.911,10.1c0,0-4.004-4.004-11.465,0.273
			c0,0,8.644-2.296,11.92,3.675c0,0-0.91,6.592,2.275,10.512c3.185,3.92-0.091,8.561-12.284,3.829s-13.493-0.39-16.301-2.48
			c-2.808-2.09-4.924-7.748-5.355-11.862C311.875,173.343,310.554,170.516,301.259,171.622z"/>
		<path style="fill:#FFC3BD;" d="M318.849,181.094c-0.194,1.477-0.966,2.816-2.148,3.723c-1.576,1.188-3.08-0.044-3.245-1.908
			c-0.148-1.671,0.492-4.312,2.366-4.77c1.374-0.292,2.724,0.585,3.016,1.959C318.907,180.425,318.911,180.764,318.849,181.094z"/>
		<path style="fill:#FFC3BD;" d="M359.016,392.999c0.268,6.393,0.455,11.458,0.455,11.458l-7.097,0.81c0,0-0.681-4.322-1.705-10.949
			L359.016,392.999z"/>
		<g>
			<path style="fill:#407BFF;" d="M349.232,403.734c-0.882,0.056-1.804-0.047-2.12-0.407c-0.165-0.212-0.179-0.505-0.034-0.732
				c0.106-0.202,0.287-0.356,0.504-0.427c1.164-0.401,3.729,0.854,3.842,0.91c0.064,0.031,0.101,0.099,0.092,0.17
				c-0.009,0.07-0.059,0.127-0.127,0.146C350.681,403.57,349.959,403.684,349.232,403.734z M348.015,402.426
				c-0.109,0.005-0.216,0.026-0.319,0.062c-0.138,0.033-0.254,0.127-0.315,0.256c-0.111,0.217-0.061,0.315-0.01,0.37
				c0.358,0.441,2.148,0.338,3.458,0.09C349.949,402.769,348.994,402.505,348.015,402.426z"/>
			<path style="fill:#407BFF;" d="M351.362,403.393c-0.023,0.008-0.048,0.008-0.07-0.002c-0.872-0.322-2.675-1.751-2.575-2.559
				c0.005-0.194,0.135-0.437,0.595-0.513c0.336-0.057,0.68,0.025,0.954,0.227c0.951,0.685,1.262,2.586,1.278,2.675
				c0.008,0.06-0.017,0.12-0.066,0.157C351.442,403.398,351.401,403.403,351.362,403.393z M349.444,400.631l-0.097-0.002
				c-0.301,0.045-0.313,0.168-0.322,0.212c-0.013,0.484,1.182,1.616,2.094,2.08c-0.135-0.799-0.513-1.537-1.081-2.115
				C349.868,400.677,349.657,400.616,349.444,400.631L349.444,400.631z"/>
			<path style="fill:#263238;" d="M352.05,402.355l7.744-0.494c0.292-0.019,0.558,0.167,0.64,0.448l1.802,6.211
				c0.164,0.55-0.149,1.128-0.699,1.292c-0.071,0.021-0.143,0.035-0.217,0.04c-2.795,0.13-5.287,0.135-8.762,0.362
				c-4.101,0.263-3.029,0.687-7.847,1.064c-2.903,0.224-3.646-3.045-2.424-3.286c5.593-1.07,6.07-2.81,8.116-4.967
				C350.852,402.607,351.438,402.369,352.05,402.355z"/>
		</g>
		<path style="fill:#263238;" d="M354.701,242.179l-1.352-4.849c-0.165-0.593-0.831-0.887-1.381-0.61l-30.258,15.259
			c-0.529,0.267-0.701,0.938-0.365,1.426l3.068,4.457c0,0,7.508,51.165,10.624,68.173c3.177,17.336,14.564,69.193,14.564,69.193
			c0.075,0.384,0.441,0.639,0.827,0.576l8.814-1.429c0.344-0.056,0.6-0.347,0.608-0.696c0.102-4.421,0.032-32.362-2.784-52.128
			c-1.006-7.061-3.38-12.718-4.187-16.609c-0.891-4.293,0.488-7.172,1.031-17.507C354.937,287.976,356.16,257.299,354.701,242.179z"
			/>
		<path style="opacity:0.5;" d="M353.913,307.437c0.342-6.508,0.707-14.271,0.986-22.286l-8.774-14.803l-3.916-8.735l-3.699,5.032
			c0,0,6.539,27.511,15.126,44.795C353.739,310.237,353.835,308.922,353.913,307.437z"/>
		<path style="fill:#FFC3BD;" d="M420.495,368.54c3.686,5.231,6.078,8.668,6.078,8.668l-5.529,4.522c0,0-2.912-3.266-7.359-8.284
			L420.495,368.54z"/>
		<g>
			<path style="fill:#407BFF;" d="M417.159,382.081c-0.711,0.525-1.542,0.937-2.003,0.805c-0.254-0.089-0.424-0.328-0.424-0.597
				c-0.02-0.228,0.049-0.454,0.193-0.632c0.762-0.967,3.598-1.3,3.723-1.314c0.07-0.008,0.138,0.029,0.17,0.093
				c0.03,0.064,0.019,0.139-0.027,0.192C418.29,381.158,417.744,381.645,417.159,382.081z M415.429,381.639
				c-0.089,0.063-0.168,0.139-0.234,0.225c-0.099,0.103-0.145,0.245-0.126,0.385c0.024,0.243,0.119,0.298,0.192,0.316
				c0.54,0.177,1.99-0.879,2.957-1.796C417.241,380.88,416.295,381.176,415.429,381.639z"/>
			<path style="fill:#407BFF;" d="M418.767,380.641c-0.015,0.019-0.036,0.032-0.06,0.037c-0.908,0.201-3.197-0.025-3.55-0.758
				c-0.101-0.165-0.123-0.44,0.222-0.753c0.251-0.23,0.585-0.347,0.925-0.325c1.17,0.061,2.461,1.492,2.522,1.558
				c0.04,0.046,0.051,0.11,0.03,0.167C418.836,380.602,418.805,380.628,418.767,380.641z M415.659,379.356l-0.083,0.05
				c-0.228,0.2-0.172,0.31-0.156,0.353c0.251,0.414,1.868,0.719,2.887,0.615c-0.546-0.599-1.263-1.015-2.053-1.193
				C416.04,379.166,415.829,379.228,415.659,379.356L415.659,379.356z"/>
			<path style="fill:#263238;" d="M418.783,379.395l6.245-4.607c0.235-0.174,0.56-0.161,0.78,0.03l4.876,4.247
				c0.435,0.374,0.485,1.029,0.112,1.465c-0.048,0.056-0.102,0.106-0.16,0.151c-2.28,1.622-4.372,2.975-7.172,5.046
				c-3.306,2.441-2.175,2.217-6.023,5.141c-2.32,1.759-4.713-0.587-3.817-1.451c4.124-3.927,3.583-5.647,4.137-8.569
				C417.912,380.256,418.276,379.739,418.783,379.395z"/>
		</g>
		<path style="fill:#263238;" d="M332.54,254.516c0,0,23.173,53.419,34.122,69.336c9.723,14.135,46.665,50.316,46.665,50.316
			c0.567,0.612,1.516,0.668,2.152,0.128l5.128-4.359c0.585-0.497,0.722-1.345,0.321-2c-3.144-5.13-16.412-26.456-28.043-40.334
			c-4.64-5.536-9.105-9.589-11.3-12.643c-2.894-4.028-2.216-7.263-4.507-18.451c-4.26-20.804-12.553-51.404-25.157-56.301
			L332.54,254.516z"/>
	</g>
</g>
<g id="Device">
	<g>
		<g>
			<g>
				<path style="opacity:0.3;fill:#407BFF;" d="M287.812,405.433h-94.391c-6.532,0-11.364-5.295-10.792-11.827l20.738-237.04
					c0.572-6.532,6.33-11.827,12.862-11.827h94.391c6.532,0,11.364,5.295,10.792,11.827l-20.738,237.04
					C300.102,400.138,294.344,405.433,287.812,405.433z"/>
				<g>
					<path style="fill:#407BFF;" d="M310.62,144.739h-94.39c-6.532,0-12.29,5.295-12.862,11.827l-20.738,237.04
						c-0.571,6.532,4.26,11.827,10.792,11.827h94.39c6.532,0,12.29-5.295,12.862-11.827l20.738-237.04
						C321.984,150.034,317.152,144.739,310.62,144.739z M295.423,393.607c-0.317,3.627-3.526,6.577-7.152,6.577h-94.39
						c-3.627,0-6.319-2.95-6.002-6.577l20.738-237.04c0.317-3.627,3.526-6.577,7.153-6.577h94.39c3.626,0,6.319,2.95,6.001,6.577
						L295.423,393.607z"/>
					<path style="opacity:0.6;fill:#FFFFFF;" d="M310.62,144.739h-94.39c-6.532,0-12.29,5.295-12.862,11.827l-20.738,237.04
						c-0.571,6.532,4.26,11.827,10.792,11.827h94.39c6.532,0,12.29-5.295,12.862-11.827l20.738-237.04
						C321.984,150.034,317.152,144.739,310.62,144.739z M295.423,393.607c-0.317,3.627-3.526,6.577-7.152,6.577h-94.39
						c-3.627,0-6.319-2.95-6.002-6.577l20.738-237.04c0.317-3.627,3.526-6.577,7.153-6.577h94.39c3.626,0,6.319,2.95,6.001,6.577
						L295.423,393.607z"/>
				</g>
				<path style="fill:#FFFFFF;" d="M254.787,390.789c-0.562,0-25.4,0-25.962,0c-0.804,0-1.513,0.652-1.584,1.456
					c-0.07,0.804,0.525,1.456,1.329,1.456c0.572,0,25.39,0,25.962,0c0.804,0,1.513-0.652,1.584-1.456
					C256.187,391.441,255.592,390.789,254.787,390.789z"/>
			</g>
			<g>
				<g>
					<path style="opacity:0.1;" d="M254.153,254.982h-27.526c-3.813,0-6.633-3.091-6.299-6.903l2.408-27.526
						c0.334-3.813,3.695-6.904,7.508-6.904h27.526c3.813,0,6.633,3.091,6.3,6.904l-2.408,27.526
						C261.327,251.891,257.965,254.982,254.153,254.982z"/>
					<path style="fill:#407BFF;" d="M251.153,251.982h-27.526c-3.813,0-6.633-3.091-6.299-6.903l2.408-27.526
						c0.334-3.813,3.695-6.904,7.508-6.904h27.526c3.813,0,6.633,3.091,6.3,6.904l-2.408,27.526
						C258.327,248.891,254.965,251.982,251.153,251.982z"/>
					<path style="fill:#FFFFFF;" d="M243.822,228.817c0.467-5.333-4.055-9.656-10.099-9.656c-6.044,0-11.321,4.323-11.788,9.656
						c-0.369,4.215,2.385,7.79,6.537,9.107c-0.683,1.229-1.643,2.154-2.622,2.591c0.203,0.114,0.406,0.227,0.634,0.309
						c2.205,0.798,4.753-0.263,5.979-2.37C238.324,238.254,243.366,234.022,243.822,228.817z"/>
					<path style="fill:#FFFFFF;" d="M256.493,233.443c0.385-4.402-3.347-7.97-8.335-7.97c-0.893,0-1.764,0.119-2.598,0.332
						c0.204,0.962,0.284,1.969,0.193,3.012c-0.334,3.816-2.663,7.188-6.007,9.296c1.363,1.85,3.653,3.102,6.382,3.272
						c0.608,1.654,2.424,2.499,4.225,1.886c0.182-0.062,0.35-0.147,0.518-0.233c-0.672-0.326-1.255-1.023-1.608-1.934
						C253.13,240.154,256.174,237.087,256.493,233.443z"/>
				</g>
				<g>
					<path style="opacity:0.1;" d="M241.533,340.204h-20.474c-2.836,0-4.934-2.299-4.686-5.135l1.791-20.474
						c0.248-2.836,2.748-5.135,5.584-5.135h20.474c2.836,0,4.934,2.299,4.686,5.135l-1.791,20.474
						C246.869,337.905,244.369,340.204,241.533,340.204z"/>
					<path style="opacity:0.1;" d="M271.565,300.361h-25.592c-3.545,0-6.167-2.874-5.857-6.419l2.239-25.592
						c0.31-3.545,3.435-6.419,6.98-6.419h25.592c3.545,0,6.167,2.874,5.857,6.419l-2.239,25.592
						C278.235,297.488,275.11,300.361,271.565,300.361z"/>
					<path style="fill:#407BFF;" d="M268.565,297.361h-25.592c-3.545,0-6.167-2.874-5.857-6.419l2.239-25.592
						c0.31-3.545,3.435-6.419,6.98-6.419h25.592c3.545,0,6.167,2.874,5.857,6.419l-2.239,25.592
						C275.235,294.488,272.11,297.361,268.565,297.361z"/>
					<path style="fill:#407BFF;" d="M238.533,337.204h-20.474c-2.836,0-4.934-2.299-4.686-5.135l1.791-20.474
						c0.248-2.836,2.748-5.135,5.584-5.135h20.474c2.836,0,4.934,2.299,4.686,5.135l-1.791,20.474
						C243.869,334.905,241.369,337.204,238.533,337.204z"/>
					<path style="fill:#FFFFFF;" d="M270.245,267.594h-23.744c-1.501,0-2.828,1.221-2.96,2.721l-1.37,15.661
						c-0.131,1.501,0.983,2.723,2.483,2.723h23.743c1.501,0,2.828-1.221,2.96-2.723l1.37-15.661
						C272.86,268.815,271.746,267.594,270.245,267.594z M252.059,278.131l-7.951,7.312l1.279-14.622L252.059,278.131z
						 M246.841,269.484h22.734l-11.495,10.569c-0.478,0.44-1.193,0.439-1.594,0L246.841,269.484z M253.279,279.467l1.754,1.923
						c0.537,0.589,1.284,0.882,2.056,0.882c0.772,0,1.571-0.294,2.21-0.882l2.091-1.922l6.698,7.341h-22.793L253.279,279.467z
						 M262.843,278.131l7.951-7.311l-1.279,14.623L262.843,278.131z"/>
					<g>
						<g>
							<polygon style="fill:#FFFFFF;" points="220.255,316.317 226.245,318.764 232.846,314.236 227.888,320.11 231.535,325.25 
								237.302,310.932 							"/>
							<polygon style="fill:#FFFFFF;" points="225.835,320.119 228.538,323.423 225.663,323.423 							"/>
						</g>
						<g>
							<g>
								<path style="fill:#FFFFFF;" d="M223.447,324.434l-0.631-0.406c0.326-0.508,0.604-0.833,0.615-0.847l0.57,0.486
									C223.999,323.67,223.744,323.972,223.447,324.434z"/>
							</g>
							<g>
								<path style="fill:#FFFFFF;" d="M223.154,329.359c-0.672-0.402-1.106-0.94-1.292-1.6l0.722-0.203
									c0.134,0.476,0.446,0.854,0.955,1.158L223.154,329.359z M222.52,326.784l-0.747-0.061c0.047-0.572,0.239-1.201,0.572-1.87
									l0.672,0.334C222.726,325.772,222.559,326.309,222.52,326.784z"/>
							</g>
							<g>
								<path style="fill:#FFFFFF;" d="M238.272,331.976l-0.739-0.129c0.034-0.196,0.051-0.377,0.051-0.543
									c0-0.38-0.088-0.673-0.27-0.894l0.578-0.477c0.294,0.355,0.442,0.816,0.442,1.37
									C238.334,331.509,238.314,331.732,238.272,331.976z M227.64,330.247c-0.264-0.001-0.525-0.006-0.784-0.017l0.032-0.75
									c0.586,0.025,1.185,0.02,1.791-0.008l0.033,0.75C228.353,330.238,227.995,330.247,227.64,330.247z M229.633,330.168
									l-0.054-0.748c0.61-0.044,1.216-0.102,1.809-0.158l0.072,0.746C230.863,330.066,230.249,330.124,229.633,330.168z
									 M225.923,330.16c-0.104-0.012-0.208-0.024-0.311-0.039c-0.579-0.079-1.101-0.197-1.552-0.352l0.242-0.709
									c0.406,0.138,0.881,0.245,1.412,0.318l0.289,0.035L225.923,330.16z M236.722,330.013c-0.399-0.156-0.943-0.237-1.663-0.247
									l0.011-0.75c0.811,0.012,1.441,0.108,1.926,0.298L236.722,330.013z M232.368,329.921l-0.071-0.746
									c0.643-0.061,1.261-0.113,1.837-0.142l0.036,0.75C233.605,329.81,232.999,329.861,232.368,329.921z"/>
							</g>
							<g>
								<path style="fill:#FFFFFF;" d="M237.646,333.9l-0.688-0.301c0.142-0.323,0.259-0.625,0.352-0.903l0.711,0.238
									C237.923,333.232,237.798,333.554,237.646,333.9z"/>
							</g>
						</g>
					</g>
				</g>
			</g>
			<g>
				<path style="opacity:0.1;" d="M265.4,208.068h-23.033c-3.19,0-5.55-2.586-5.271-5.777l2.015-23.033
					c0.279-3.19,3.092-5.777,6.282-5.777h23.033c3.19,0,5.55,2.586,5.271,5.777l-2.015,23.033
					C271.403,205.482,268.591,208.068,265.4,208.068z"/>
				<path style="fill:#407BFF;" d="M262.4,205.068h-23.033c-3.19,0-5.55-2.586-5.271-5.777l2.015-23.033
					c0.279-3.19,3.092-5.777,6.282-5.777h23.033c3.19,0,5.55,2.586,5.271,5.777l-2.015,23.033
					C268.403,202.482,265.591,205.068,262.4,205.068z"/>
				<path style="fill:#FFFFFF;" d="M263.634,192.467c-0.418-8.47-6.54-15.18-14.91-16.339c-2.237-1.206-5.221-0.577-7.01,1.621
					c-1.976,2.427-0.229,3.973,2.044,5.737c2.273,1.763,4.211,3.076,6.186,0.649c0.772-0.949,1.195-2.045,1.301-3.135
					c3.751,1.538,6.576,4.634,7.775,8.52c-1.091,0.011-2.215,0.337-3.225,1.027c-2.581,1.763-1.449,3.816,0.102,6.243
					c1.551,2.427,2.933,4.31,5.514,2.546C263.749,197.738,264.635,194.809,263.634,192.467z"/>
			</g>
		</g>
		<g>
			<g>
				<path style="fill:#407BFF;" d="M254.023,140.759c5.227,0,10.454,0,15.681,0c0.772,0,0.878-1.2,0.105-1.2
					c-5.227,0-10.454,0-15.681,0C253.355,139.559,253.249,140.759,254.023,140.759L254.023,140.759z"/>
			</g>
			<g>
				<path style="fill:#407BFF;" d="M275.448,140.759c1.502,0,3.004,0,4.505,0c0.772,0,0.878-1.2,0.105-1.2c-1.502,0-3.004,0-4.506,0
					C274.781,139.559,274.675,140.759,275.448,140.759L275.448,140.759z"/>
			</g>
			<g style="opacity:0.3;">
				<path style="fill:#FFFFFF;" d="M254.023,140.759c5.227,0,10.454,0,15.681,0c0.772,0,0.878-1.2,0.105-1.2
					c-5.227,0-10.454,0-15.681,0C253.355,139.559,253.249,140.759,254.023,140.759L254.023,140.759z"/>
			</g>
			<g style="opacity:0.3;">
				<path style="fill:#FFFFFF;" d="M275.448,140.759c1.502,0,3.004,0,4.505,0c0.772,0,0.878-1.2,0.105-1.2c-1.502,0-3.004,0-4.506,0
					C274.781,139.559,274.675,140.759,275.448,140.759L275.448,140.759z"/>
			</g>
		</g>
		<g>
			<g>
				<path style="fill:#407BFF;" d="M305.696,262.068c-0.457,5.227-0.915,10.454-1.372,15.681c-0.068,0.772,1.123,0.878,1.191,0.105
					c0.457-5.227,0.915-10.454,1.372-15.681C306.955,261.401,305.764,261.295,305.696,262.068L305.696,262.068z"/>
			</g>
			<g>
				<path style="fill:#407BFF;" d="M303.822,283.494c-0.131,1.502-0.263,3.004-0.394,4.506c-0.068,0.772,1.123,0.878,1.191,0.105
					c0.131-1.502,0.263-3.004,0.394-4.506C305.08,282.826,303.889,282.72,303.822,283.494L303.822,283.494z"/>
			</g>
			<g style="opacity:0.3;">
				<path style="fill:#FFFFFF;" d="M305.696,262.068c-0.457,5.227-0.915,10.454-1.372,15.681c-0.068,0.772,1.123,0.878,1.191,0.105
					c0.457-5.227,0.915-10.454,1.372-15.681C306.955,261.401,305.764,261.295,305.696,262.068L305.696,262.068z"/>
			</g>
			<g style="opacity:0.3;">
				<path style="fill:#FFFFFF;" d="M303.822,283.494c-0.131,1.502-0.263,3.004-0.394,4.506c-0.068,0.772,1.123,0.878,1.191,0.105
					c0.131-1.502,0.263-3.004,0.394-4.506C305.08,282.826,303.889,282.72,303.822,283.494L303.822,283.494z"/>
			</g>
		</g>
	</g>
</g>
<g id="Character_1">
	<g>
		<path style="fill:#263238;" d="M166.853,192.294c0,0-5.802-0.797-5.102,2.222C162.263,196.723,164.212,192.391,166.853,192.294z"
			/>
		<g>
			<path style="fill:#FF8B7B;" d="M161.813,199.148c0,0,4.778-0.044,5.517-8.76c0,0,4.558-1.589,7.149,1.249
				s-3.357,8.346-0.076,11.203C174.403,202.84,171.12,204.63,161.813,199.148z"/>
			<path style="fill:#263238;" d="M179.5,168.38c0,0,6.158-1.322,7.758,3.209c1.6,4.531-9.12,2.54-9.12,2.54L179.5,168.38z"/>
			<path style="opacity:0.3;" d="M179.5,168.38c0,0,6.158-1.322,7.758,3.209c1.6,4.531-9.12,2.54-9.12,2.54L179.5,168.38z"/>
			<path style="fill:#263238;" d="M184.538,179.671c0.098-0.579,0.484-0.997,0.863-0.932c0.378,0.064,0.606,0.586,0.508,1.165
				c-0.098,0.579-0.484,0.996-0.863,0.932C184.667,180.771,184.44,180.25,184.538,179.671z"/>
			<path style="fill:#FF5652;" d="M184.838,180.764l2.697,4.354c0,0-1.446,1.04-3.443,0.296L184.838,180.764z"/>
			<path style="fill:#FF8B7B;" d="M164.469,176.873c-0.336,7.408-0.638,10.543,2.674,14.718c5.269,4.454,14.169,5.079,16.711-2.086
				c2.29-6.446,2.454-17.452-4.441-21.194c-4.915-2.665-11.061-0.842-13.726,4.074C164.939,173.766,164.522,175.303,164.469,176.873
				z"/>
			<path style="fill:#263238;" d="M183.608,177.843c0.108,0.039,0.228,0.025,0.323-0.039c0.695-0.533,1.604-0.697,2.442-0.442
				c0.175,0.066,0.371-0.021,0.439-0.195c0.066-0.177-0.019-0.375-0.194-0.447c-1.053-0.338-2.204-0.144-3.088,0.52
				c-0.156,0.099-0.202,0.306-0.103,0.462c0.003,0.005,0.006,0.01,0.009,0.014C183.476,177.778,183.537,177.823,183.608,177.843z"/>
			<g>
				<path style="fill:#263238;" d="M158.445,200.652c0,0,2.064-5.688,10.592-2.063c8.529,3.624,9.334,8.626,9.334,8.626
					L158.445,200.652z"/>
				<path style="opacity:0.4;" d="M158.445,200.652c0,0,2.064-5.688,10.592-2.063c8.529,3.624,9.334,8.626,9.334,8.626
					L158.445,200.652z"/>
			</g>
			<path style="fill:#FF8B7B;" d="M162.281,308.492c0,0-1.216,10.367-1.795,13.796c-0.513,3.04-16.984,81.704-16.984,81.704
				l-7.515-1.243c0,0-0.831-39.87,4.947-66.257c1.183-5.402,3.575-9.925,4.444-14.053c0.698-3.315-0.355-13.547-0.355-13.547
				L162.281,308.492z"/>
			<path style="fill:#FF8B7B;" d="M131,306.805c0,0-3.492,9.496-5.119,12.44c-1.769,3.2-8.49,11.91-8.49,11.91L81.59,381.378
				l-6.848-4.332c0,0,10.33-27.655,25.888-50.175c3.709-5.368,9.05-9.459,11.948-14.786c1.669-3.069,3.097-13.627,3.097-13.627
				L131,306.805z"/>
			<path style="fill:#FF8B7B;" d="M140.601,210.639c0,0-8.569,10.929-7.844,15.524c0.726,4.594,14.161,10.181,14.161,10.181
				l3.411-4.85l-8.824-6.442l8.4-9.628L140.601,210.639z"/>
			<path style="fill:#263238;" d="M154.772,199.698c-1.077-0.503-5.817-2.409-16.074,10.915c0,0,3.734,4.648,11.726,7.417
				C150.425,218.03,159.421,201.869,154.772,199.698z"/>
			<path style="opacity:0.4;" d="M150.425,218.03c0,0,1.493-2.683,2.948-6.009c-0.244-5.711-0.944-12.801-2.948-10.249
				c-2.655,3.382-6.338,10.191-7.545,12.47C144.746,215.529,147.242,216.927,150.425,218.03z"/>
			<path style="fill:#407BFF;" d="M142.354,243.957c0,0,13.764,8.144,31.895,9.18l-11.557,64.41c0,0-33.34-0.103-50.774-16.666
				C111.918,300.88,118.867,265.784,142.354,243.957z"/>
			<path style="fill:#263238;" d="M140.935,244.14c0,0,13.35,9.84,34.615,9.166c0,0,12.21-33.779,4.558-45.202
				c-4.729-7.059-22.886-10.258-27.781-8.247C146.439,202.275,149.847,223.46,140.935,244.14z"/>
			<path style="opacity:0.1;" d="M144.139,278.842l-14.848,32.465c6.056,2.38,12.423,3.607,15.999,4.394
				C145.29,315.701,145.788,285.37,144.139,278.842z"/>
			<path style="opacity:0.4;" d="M174.509,213.626l-2.361,1.741c0,0,2.038,8.538,8.802,18.394c0.963-4.777,1.663-9.805,1.672-14.334
				l-5.259-4.459L174.509,213.626z"/>
			<path style="fill:#FF8B7B;" d="M187.891,218.514l8.003,11.148l20.101,1.326l3.691-3.07c0.249-0.207,0.555-0.331,0.877-0.357
				l10.732-0.851c0.33-0.026,0.606,0.247,0.584,0.577l-0.061,0.914c-0.018,0.268-0.23,0.483-0.498,0.504l-5.085,0.403l-1.035,5.216
				c-0.118,0.596-0.568,1.071-1.156,1.222l-3.985,1.023c-0.256,0.066-0.525,0.066-0.781,0.001l-2.816-0.715
				c0,0-15.667,3.165-22.861,1.896c-7.194-1.27-14.283-12.97-14.283-12.97L187.891,218.514z"/>
			<path style="fill:#263238;" d="M178.63,226.977c0,0-12.883-17.224-4.933-21.226c7.95-4.003,16.307,13.702,16.307,13.702
				S186.736,224.449,178.63,226.977z"/>
			<g>
				<path style="fill:#407BFF;" d="M145.132,403.543c-0.08-0.02-0.14-0.086-0.153-0.167c-0.012-0.082,0.029-0.162,0.102-0.201
					c0.13-0.068,3.08-1.611,4.449-1.179c0.255,0.077,0.471,0.25,0.601,0.482c0.176,0.259,0.169,0.601-0.017,0.854
					c-0.358,0.43-1.429,0.579-2.458,0.54C146.807,403.836,145.962,403.726,145.132,403.543z M145.777,403.303
					c1.534,0.248,3.623,0.313,4.027-0.212c0.058-0.065,0.114-0.181-0.023-0.43c-0.074-0.148-0.212-0.255-0.375-0.289
					c-0.121-0.039-0.246-0.06-0.373-0.063C147.895,402.433,146.79,402.769,145.777,403.303z"/>
				<path style="fill:#407BFF;" d="M145.028,403.527c-0.058-0.041-0.089-0.11-0.081-0.181c0.015-0.103,0.319-2.329,1.406-3.156
					c0.313-0.244,0.712-0.351,1.104-0.294c0.538,0.074,0.697,0.354,0.709,0.579c0.142,0.938-1.915,2.659-2.922,3.061
					c-0.026,0.012-0.055,0.013-0.082,0.004C145.117,403.553,145.07,403.548,145.028,403.527z M147.312,400.263
					c-0.248-0.012-0.492,0.067-0.687,0.221c-0.644,0.691-1.061,1.563-1.195,2.498c1.049-0.569,2.406-1.925,2.377-2.488
					c-0.013-0.051-0.031-0.194-0.382-0.237L147.312,400.263L147.312,400.263z"/>
				<path style="fill:#263238;" d="M144.329,402.352l-9.04-0.337c-0.341-0.013-0.645,0.212-0.732,0.542l-1.908,7.293
					c-0.174,0.646,0.208,1.31,0.854,1.484c0.083,0.022,0.168,0.036,0.253,0.04c3.261,0.065,6.165-0.005,10.222,0.152
					c4.787,0.18,3.551,0.708,9.177,0.998c3.39,0.171,4.154-3.66,2.723-3.904c-6.551-1.074-7.16-3.087-9.611-5.537
					C145.733,402.609,145.043,402.349,144.329,402.352z"/>
			</g>
			<g>
				<path style="fill:#407BFF;" d="M82.714,381.871c-0.062-0.054-0.086-0.139-0.061-0.218c0.026-0.078,0.099-0.132,0.182-0.133
					c0.147-0.002,3.476-0.049,4.503,0.954c0.193,0.183,0.308,0.435,0.319,0.701c0.04,0.311-0.12,0.613-0.4,0.754
					c-0.513,0.222-1.536-0.128-2.438-0.626C84.076,382.888,83.372,382.409,82.714,381.871z M83.397,381.948
					c1.257,0.913,3.093,1.913,3.69,1.627c0.081-0.031,0.183-0.11,0.174-0.394c0.001-0.166-0.075-0.323-0.204-0.427
					c-0.09-0.089-0.193-0.165-0.305-0.224C85.68,382.126,84.543,381.928,83.397,381.948z"/>
				<path style="fill:#407BFF;" d="M82.628,381.81c-0.033-0.063-0.03-0.138,0.009-0.198c0.06-0.086,1.335-1.935,2.678-2.183
					c0.389-0.077,0.794,0.008,1.119,0.235c0.447,0.309,0.462,0.63,0.371,0.836c-0.296,0.901-2.909,1.51-3.988,1.415
					c-0.028-0.001-0.055-0.013-0.075-0.033C82.696,381.874,82.656,381.848,82.628,381.81z M86.139,379.927
					c-0.216-0.123-0.47-0.163-0.713-0.112c-0.887,0.326-1.652,0.916-2.192,1.691c1.193-0.035,3.015-0.633,3.243-1.149
					c0.011-0.051,0.06-0.187-0.234-0.384L86.139,379.927L86.139,379.927z"/>
				<path style="fill:#263238;" d="M82.535,380.446l-7.917-4.377c-0.298-0.165-0.671-0.101-0.897,0.154l-4.992,5.649
					c-0.447,0.498-0.405,1.263,0.093,1.71c0.064,0.057,0.134,0.108,0.208,0.15c2.881,1.528,5.505,2.775,9.056,4.744
					c4.192,2.319,2.851,2.233,7.741,5.028c2.948,1.681,5.358-1.394,4.191-2.257c-5.363-3.912-4.999-5.983-6.082-9.276
					C83.672,381.309,83.173,380.766,82.535,380.446z"/>
			</g>
			<path style="fill:#263238;" d="M176.953,183.241c0,0,3.042-0.952,1.894-5.356c0,0,1.771-2.965,1.488-4.59
				c0,0,8.98-5.185,3.865-10.88c-5.115-5.695-14.473-1.883-18.598,5.389c0,0-21.953,7.135-6.675,20.556
				C173.846,201.465,176.953,183.241,176.953,183.241z"/>
			<path style="fill:#263238;" d="M167.935,170.851c0,0-3.422-7.534,1.72-13.219C174.797,151.946,166.242,165.646,167.935,170.851z"
				/>
			<path style="fill:#407BFF;" d="M176.953,183.241c0,0,0.096-0.032,0.243-0.103c-0.041-5.634-2.17-12.398-10.486-17.016
				c-0.397,0.54-0.775,1.095-1.109,1.683c0,0-0.633,0.208-1.598,0.61c2.876,3.06,10.781,13.189,1.893,24.26
				C174.861,195.469,176.953,183.241,176.953,183.241z"/>
			<path style="fill:#FF8B7B;" d="M177.35,180.603c1.024,1.117,1.56,2.596,1.491,4.109c-0.107,2.007-2.066,2.385-3.629,1.306
				c-1.417-0.977-3.048-3.195-2.172-4.963S176.083,179.251,177.35,180.603z"/>
			<path style="fill:#263238;" d="M185.257,178.753l1.628-0.084C186.885,178.669,185.822,179.676,185.257,178.753z"/>
			<path style="opacity:0.2;" d="M170.434,193.671c0.415,0.854,1.479,2.643,3.606,3.967c0.329-0.936,0.696-1.878,0.912-2.769
				C173.434,194.743,171.888,194.336,170.434,193.671z"/>
		</g>
	</g>
</g>
</svg>
